<svg xmlns="http://www.w3.org/2000/svg" width="32" height="32">
    <path style="stroke:none;fill-rule:nonzero;fill:#999;fill-opacity:1" d="M25.465 11.602c2.402 2.398 2.402 6.132 0 8.664l1.336 1.336c3.332-3.067 3.332-8.137 0-11.336l-1.336 1.336M24 13.066l-1.332 1.332a2.609 2.609 0 0 1 0 3.067L24 18.8c1.602-1.602 1.602-4 0-5.735M18.668 1.332H5.332A2.666 2.666 0 0 0 2.668 4v24a2.666 2.666 0 0 0 2.664 2.668h13.336A2.666 2.666 0 0 0 21.332 28V4a2.666 2.666 0 0 0-2.664-2.668m0 25.336H5.332V5.332h13.336Zm0 0"/>
</svg>
