<svg xmlns="http://www.w3.org/2000/svg" width="32" height="32">
    <path style="stroke:none;fill-rule:nonzero;fill:#999;fill-opacity:1" d="M8 12h2.668v2.668h2.664v2.664h-2.664V20H8v-2.668H5.332v-2.664H8V12m16.668 0c1.102 0 2 .895 2 2s-.898 2-2 2a1.999 1.999 0 1 1 0-4m-4 4c1.102 0 2 .895 2 2s-.898 2-2 2a1.999 1.999 0 1 1 0-4m2-9.332A9.332 9.332 0 0 1 32 16a9.332 9.332 0 0 1-9.332 9.332A9.29 9.29 0 0 1 16 22.535a9.29 9.29 0 0 1-6.668 2.797A9.332 9.332 0 0 1 0 16a9.332 9.332 0 0 1 9.332-9.332h13.336M9.332 9.332A6.666 6.666 0 0 0 2.668 16a6.666 6.666 0 0 0 12 4h2.664a6.667 6.667 0 0 0 12-4 6.666 6.666 0 0 0-6.664-6.668Zm0 0"/>
</svg>
