<svg xmlns="http://www.w3.org/2000/svg" width="32" height="32">
    <path style="stroke:none;fill-rule:nonzero;fill:#999;fill-opacity:1" d="M21.332 14.668a3.985 3.985 0 0 0 3.988-4c0-2.215-1.773-4-3.988-4-2.21 0-4 1.785-4 4 0 2.21 1.79 4 4 4Zm-10.664 0c2.21 0 3.984-1.79 3.984-4 0-2.215-1.773-4-3.984-4-2.215 0-4 1.785-4 4 0 2.21 1.785 4 4 4Zm0 2.664c-3.11 0-9.336 1.563-9.336 4.668v3.332H20V22c0-3.105-6.227-4.668-9.332-4.668Zm10.664 0c-.387 0-.824.027-1.293.066 1.547 1.122 2.629 2.63 2.629 4.602v3.332h8V22c0-3.105-6.227-4.668-9.336-4.668Zm0 0"/>
</svg>
