<svg xmlns="http://www.w3.org/2000/svg" width="32" height="32">
    <path style="stroke:none;fill-rule:nonzero;fill:#777;fill-opacity:1" d="M10.668 4A6.667 6.667 0 0 0 4 10.668v10.664A6.667 6.667 0 0 0 10.668 28h10.664A6.667 6.667 0 0 0 28 21.332V10.668A6.667 6.667 0 0 0 21.332 4ZM24 6.668c.734 0 1.332.598 1.332 1.332 0 .734-.598 1.332-1.332 1.332A1.334 1.334 0 0 1 22.668 8c0-.734.598-1.332 1.332-1.332Zm-8 2.664A6.672 6.672 0 0 1 22.668 16 6.672 6.672 0 0 1 16 22.668 6.672 6.672 0 0 1 9.332 16 6.672 6.672 0 0 1 16 9.332ZM16 12c-2.21 0-4 1.79-4 4s1.79 4 4 4 4-1.79 4-4-1.79-4-4-4Zm0 0"/>
</svg>
